<svg viewBox="0 0 72 38" xmlns="http://www.w3.org/2000/svg" fill-rule="evenodd" clip-rule="evenodd" stroke-linejoin="round" stroke-miterlimit="1.414"><g fill="#293c7a" fill-rule="nonzero"><path d="M9 2.3v18.3h8.8l1.7 3.8H4.8V2.3H9z"/><path d="M34.1 8.9L22.3 36.4H18l5.2-12.2-6.3-15.3h4.5l2.4 6.7 1.5 4.4 1.6-4.3 2.9-6.8h4.3zM40.5 8.9l.3 1.8c1.2-1.9 2.8-2.2 4.4-2.2 1.6 0 3.2.6 4 1.5l-1.7 3.3c-.8-.7-1.5-1-2.8-1-2 0-3.9 1.1-3.9 3.9v8.2h-3.9V8.8l3.6.1zM63 8.9h3.7v15.6h-3.6l-.2-2.3c-.9 1.8-3.3 2.7-5.1 2.7-4.6 0-8-2.8-8-8.3 0-5.4 3.6-8.2 8.1-8.1 2.1 0 4.1 1 5 2.5l.1-2.1zm-9.4 7.7c0 3 2.1 4.7 4.6 4.7 6.1 0 6.1-9.4 0-9.4-2.5 0-4.6 1.8-4.6 4.7z"/></g></svg>